<svg data-v-fde0c5aa="" xmlns="http://www.w3.org/2000/svg" viewBox="0 0 300 300" class="iconLeft"><!----><defs data-v-fde0c5aa=""><!----></defs><rect data-v-fde0c5aa="" fill="#000000" x="0" y="0" width="300px" height="300px" class="logo-background-square"/><defs data-v-fde0c5aa=""><!----></defs><g data-v-fde0c5aa="" id="26eefdfb-e53e-407c-8272-1f4561c81c9d" fill="#ffffff" transform="matrix(4.44947811314716,0,0,4.44947811314716,121.13178831675734,108.4196290270157)"><path d="M8.61 9.77L8.61 9.77Q8.61 9.80 8.57 10.43L8.57 10.43L3.05 10.43L3.05 10.43Q3.22 11.02 3.70 11.33L3.70 11.33L3.70 11.33Q4.19 11.65 4.91 11.65L4.91 11.65L4.91 11.65Q5.46 11.65 5.86 11.49L5.86 11.49L5.86 11.49Q6.26 11.34 6.66 10.99L6.66 10.99L8.06 12.45L8.06 12.45Q6.96 13.68 4.83 13.68L4.83 13.68L4.83 13.68Q3.50 13.68 2.49 13.17L2.49 13.17L2.49 13.17Q1.48 12.67 0.93 11.77L0.93 11.77L0.93 11.77Q0.38 10.88 0.38 9.74L0.38 9.74L0.38 9.74Q0.38 8.62 0.92 7.73L0.92 7.73L0.92 7.73Q1.46 6.85 2.41 6.34L2.41 6.34L2.41 6.34Q3.36 5.84 4.55 5.84L4.55 5.84L4.55 5.84Q5.68 5.84 6.61 6.31L6.61 6.31L6.61 6.31Q7.53 6.78 8.07 7.66L8.07 7.66L8.07 7.66Q8.61 8.55 8.61 9.77L8.61 9.77ZM4.56 7.73L4.56 7.73Q3.95 7.73 3.54 8.08L3.54 8.08L3.54 8.08Q3.12 8.43 3.01 9.03L3.01 9.03L6.12 9.03L6.12 9.03Q6.01 8.43 5.59 8.08L5.59 8.08L5.59 8.08Q5.18 7.73 4.56 7.73L4.56 7.73ZM9.84 13.55L9.84 5.96L12.50 5.96L12.50 13.55L9.84 13.55ZM11.17 5.12L11.17 5.12Q10.44 5.12 10.00 4.72L10.00 4.72L10.00 4.72Q9.55 4.31 9.55 3.71L9.55 3.71L9.55 3.71Q9.55 3.11 10.00 2.70L10.00 2.70L10.00 2.70Q10.44 2.30 11.17 2.30L11.17 2.30L11.17 2.30Q11.90 2.30 12.35 2.68L12.35 2.68L12.35 2.68Q12.80 3.07 12.80 3.67L12.80 3.67L12.80 3.67Q12.80 4.30 12.35 4.71L12.35 4.71L12.35 4.71Q11.90 5.12 11.17 5.12L11.17 5.12ZM19.85 5.96L22.39 5.96L22.39 12.17L22.39 12.17Q22.39 14.28 21.24 15.34L21.24 15.34L21.24 15.34Q20.09 16.39 17.93 16.39L17.93 16.39L17.93 16.39Q16.81 16.39 15.83 16.14L15.83 16.14L15.83 16.14Q14.85 15.89 14.17 15.40L14.17 15.40L15.13 13.54L15.13 13.54Q15.60 13.92 16.30 14.13L16.30 14.13L16.30 14.13Q17.01 14.35 17.70 14.35L17.70 14.35L17.70 14.35Q18.75 14.35 19.24 13.89L19.24 13.89L19.24 13.89Q19.73 13.43 19.73 12.52L19.73 12.52L19.73 12.26L19.73 12.26Q18.96 13.16 17.47 13.16L17.47 13.16L17.47 13.16Q16.46 13.16 15.61 12.71L15.61 12.71L15.61 12.71Q14.76 12.25 14.25 11.42L14.25 11.42L14.25 11.42Q13.75 10.58 13.75 9.49L13.75 9.49L13.75 9.49Q13.75 8.41 14.25 7.58L14.25 7.58L14.25 7.58Q14.76 6.75 15.61 6.29L15.61 6.29L15.61 6.29Q16.46 5.84 17.47 5.84L17.47 5.84L17.47 5.84Q19.10 5.84 19.85 6.89L19.85 6.89L19.85 5.96ZM18.10 11.05L18.10 11.05Q18.82 11.05 19.29 10.61L19.29 10.61L19.29 10.61Q19.75 10.18 19.75 9.49L19.75 9.49L19.75 9.49Q19.75 8.81 19.29 8.38L19.29 8.38L19.29 8.38Q18.83 7.95 18.10 7.95L18.10 7.95L18.10 7.95Q17.37 7.95 16.91 8.38L16.91 8.38L16.91 8.38Q16.44 8.81 16.44 9.49L16.44 9.49L16.44 9.49Q16.44 10.18 16.91 10.61L16.91 10.61L16.91 10.61Q17.39 11.05 18.10 11.05L18.10 11.05ZM27.33 5.84L27.33 5.84Q29.22 5.84 30.21 6.70L30.21 6.70L30.21 6.70Q31.21 7.56 31.21 9.34L31.21 9.34L31.21 13.55L28.73 13.55L28.73 12.57L28.73 12.57Q28.15 13.68 26.49 13.68L26.49 13.68L26.49 13.68Q25.61 13.68 24.96 13.37L24.96 13.37L24.96 13.37Q24.32 13.06 23.99 12.54L23.99 12.54L23.99 12.54Q23.66 12.01 23.66 11.34L23.66 11.34L23.66 11.34Q23.66 10.26 24.49 9.67L24.49 9.67L24.49 9.67Q25.31 9.07 27.03 9.07L27.03 9.07L28.55 9.07L28.55 9.07Q28.48 7.87 26.94 7.87L26.94 7.87L26.94 7.87Q26.39 7.87 25.83 8.04L25.83 8.04L25.83 8.04Q25.27 8.22 24.88 8.53L24.88 8.53L23.98 6.72L23.98 6.72Q24.61 6.30 25.52 6.07L25.52 6.07L25.52 6.07Q26.42 5.84 27.33 5.84L27.33 5.84ZM27.23 12.00L27.23 12.00Q27.69 12.00 28.04 11.77L28.04 11.77L28.04 11.77Q28.39 11.55 28.55 11.12L28.55 11.12L28.55 10.46L27.40 10.46L27.40 10.46Q26.24 10.46 26.24 11.23L26.24 11.23L26.24 11.23Q26.24 11.58 26.50 11.79L26.50 11.79L26.50 11.79Q26.77 12.00 27.23 12.00L27.23 12.00Z"/></g><defs data-v-fde0c5aa=""><!----></defs><g data-v-fde0c5aa="" id="0d43848b-0391-4e3f-87a0-d69132e0ee21" stroke="none" fill="#ffffff" transform="matrix(1.0437260395931187,0,0,1.0437260395931187,27.997150544679137,102.98014271262977)"><path d="M39 88.7c-2.4 0-4.6-1.8-4.9-4.3l-7.3-50c-.4-2.7 1.5-5.3 4.2-5.7 2.7-.4 5.3 1.5 5.7 4.2l7.3 50c.4 2.7-1.5 5.3-4.2 5.7-.3 0-.6.1-.8.1zM51.6 88.7c-.2 0-.5 0-.7-.1-2.7-.4-4.6-2.9-4.2-5.7l7.3-50c.4-2.7 2.9-4.6 5.7-4.2 2.7.4 4.6 2.9 4.2 5.7l-7.3 50c-.4 2.5-2.6 4.3-5 4.3z"/><path d="M17.5 37.7c-1.8 0-3.5-1-4.4-2.6-1-1.9-1.6-4.1-1.6-6.3 0-5.9 3.8-10.9 9.1-12.7C22.4 10.8 27.4 7 33.3 7c.9 0 1.9.1 2.8.3C38.9 2.9 43.9 0 49.4 0c4.4 0 8.4 1.8 11.4 4.9 7.2.2 12.9 6.1 12.9 13.3 0 2.8-2.2 5-5 5s-5-2.2-5-5c0-1.9-1.5-3.4-3.4-3.4-.2 0-.5 0-.7.1-2 .4-4.1-.5-5.3-2.2-1.1-1.7-2.9-2.7-4.9-2.7-2.8 0-5.2 2-5.7 4.9-.3 1.8-1.5 3.3-3.2 3.9-1.7.6-3.6.3-5-.9-.5-.4-1.2-.9-2.2-.9-1.9 0-3.4 1.5-3.4 3.4 0 2.8-2.2 5-5 5-1.9 0-3.4 1.5-3.4 3.4 0 .6.1 1.1.4 1.6 1.3 2.4.4 5.5-2.1 6.8-.7.3-1.5.5-2.3.5z"/><path d="M56.1 90.1H34.6c-4.3 0-11.9-1.8-14.8-13.7 0-.1 0-.2-.1-.3l-7.5-42.5c-.3-1.5.1-2.9 1.1-4.1 1-1.1 2.4-1.8 3.8-1.8h56.3c1.5 0 2.9.7 3.8 1.8 1 1.1 1.4 2.6 1.1 4.1L70.9 76c0 .2-.1.4-.1.5-3.4 11.8-10.6 13.6-14.7 13.6zm-26.5-16c1.4 5.9 3.9 5.9 5 5.9h21.6c.8 0 3.2 0 5-6l6.4-36.4H23.1l6.5 36.5z"/></g><!----></svg>